<svg width="20px" height="20px" viewBox="0 0 20 20" version="1.1" xmlns="http://www.w3.org/2000/svg" xmlns:xlink="http://www.w3.org/1999/xlink">
    <g id="Desktop" stroke="none" stroke-width="1px" fill="#ffffff" fill-rule="evenodd" opacity="0.300000012">
        <g id="Desktop---Footer-v7-light" transform="translate(-988.000000, -4451.000000)" fill="#ffffff" stroke="none" stroke-width="1px">
            <g id="footer" transform="translate(0.000000, 4134.000000)" stroke="none" fill="#ffffff" stroke-width="1px">
                <g id="social" transform="translate(810.000000, 317.000000)" stroke="none" fill="#ffffff" stroke-width="1px">
                    <g id="linkedin_filled" transform="translate(178.000000, 0.000000)" stroke="none" fill="#ffffff" stroke-width="1px">
                        <path d="M13.2066364,10.952381 C12.2020909,10.952381 11.3884545,11.8057143 11.3884545,12.8571429 L11.3884545,19.5238095 L6.843,19.5238095 C6.843,19.5238095 6.89663636,8.0952381 6.843,7.14285714 L11.3884545,7.14285714 L11.3884545,8.55714286 C11.3884545,8.55714286 12.7957273,7.18285714 14.9693636,7.18285714 C17.6611818,7.18285714 19.5702727,9.22380952 19.5702727,13.1866667 L19.5702727,19.5238095 L15.0248182,19.5238095 L15.0248182,12.8571429 C15.0248182,11.8057143 14.2111818,10.952381 13.2066364,10.952381 L13.2066364,10.952381 Z M2.743,5.23809524 L2.71663636,5.23809524 C1.343,5.23809524 0.454818182,4.11238095 0.454818182,2.8752381 C0.454818182,1.60952381 1.37027273,0.578095238 2.77027273,0.578095238 C4.17118182,0.578095238 5.03209091,1.64285714 5.05936364,2.90857143 C5.05936364,4.14666667 4.17118182,5.23809524 2.743,5.23809524 L2.743,5.23809524 Z M5.02481818,19.5238095 L0.479363636,19.5238095 L0.479363636,7.14285714 L5.02481818,7.14285714 L5.02481818,19.5238095 Z" id="Fill-263" stroke="none" fill="#ffffff" stroke-width="1px"></path>
                    </g>
                </g>
            </g>
        </g>
    </g>
</svg>
