<svg width="24px" height="17px" viewBox="0 0 24 17" version="1.1" xmlns="http://www.w3.org/2000/svg" xmlns:xlink="http://www.w3.org/1999/xlink">
    <g id="Desktop" stroke="none" stroke-width="1px" fill="#ffffff" fill-rule="evenodd" opacity="0.300000012">
        <g id="Desktop---Footer-v7-light" transform="translate(-1050.000000, -4454.000000)" fill="#ffffff" stroke="none" stroke-width="1px">
            <g id="footer" transform="translate(0.000000, 4134.000000)" stroke="none" fill="#ffffff" stroke-width="1px">
                <g id="social" transform="translate(810.000000, 317.000000)" stroke="none" fill="#ffffff" stroke-width="1px">
                    <g id="youtube_filled" transform="translate(240.000000, 3.000000)" stroke="none" fill="#ffffff" stroke-width="1px">
                        <path d="M16.538,8.532 L9.769,12.863 C9.687,12.915 9.594,12.941 9.5,12.941 C9.417,12.941 9.335,12.921 9.26,12.88 C9.1,12.792 9,12.624 9,12.441 L9,3.779 C9,3.596 9.1,3.428 9.26,3.341 C9.421,3.253 9.616,3.26 9.769,3.358 L16.538,7.689 C16.682,7.781 16.768,7.94 16.768,8.111 C16.768,8.281 16.682,8.44 16.538,8.532 M20.062,0 L3.937,0 C1.767,0 0,1.768 0,3.94 L0,13.061 C0,15.233 1.767,17 3.937,17 L20.062,17 C22.233,17 24,15.233 24,13.061 L24,3.94 C24,1.768 22.233,0 20.062,0" id="Fill-121" stroke="none" fill="#ffffff" stroke-width="1px"></path>
                    </g>
                </g>
            </g>
        </g>
    </g>
</svg>
